<svg width="50" height="50" viewBox="0 0 50 50" fill="none" xmlns="http://www.w3.org/2000/svg">
<path d="M7.5 11.1667C7.5 10.0621 8.39543 9.16669 9.5 9.16669H38.8333C39.9379 9.16669 40.8333 10.0621 40.8333 11.1667C40.8333 12.2713 39.9379 13.1667 38.8333 13.1667H9.5C8.39543 13.1667 7.5 12.2713 7.5 11.1667Z" fill="white"/>
<path d="M7.5 24.5C7.5 23.3954 8.39543 22.5 9.5 22.5H38.8333C39.9379 22.5 40.8333 23.3954 40.8333 24.5C40.8333 25.6046 39.9379 26.5 38.8333 26.5H9.5C8.39543 26.5 7.5 25.6046 7.5 24.5Z" fill="white"/>
<path d="M7.5 37.8333C7.5 36.7287 8.39543 35.8333 9.5 35.8333H38.8333C39.9379 35.8333 40.8333 36.7287 40.8333 37.8333C40.8333 38.9379 39.9379 39.8333 38.8333 39.8333H9.5C8.39543 39.8333 7.5 38.9379 7.5 37.8333Z" fill="white"/>
</svg>
